<svg width="36" height="36" viewBox="0 0 36 36" fill="none" xmlns="http://www.w3.org/2000/svg">
<path d="M1.53943 15.7241C1.40793 16.2487 1.74151 16.7961 2.28449 16.9468C2.82747 17.0975 3.37425 16.7943 3.50575 16.2697L1.53943 15.7241ZM34.1774 12.6682L30.2017 1.78393L22.6777 10.196L34.1774 12.6682ZM2.52259 15.9969C3.50575 16.2697 3.50566 16.2701 3.50559 16.2704C3.50557 16.2704 3.50551 16.2707 3.50549 16.2708C3.50544 16.271 3.50543 16.271 3.50546 16.2709C3.50552 16.2706 3.50574 16.2698 3.50612 16.2683C3.50689 16.2653 3.5083 16.2599 3.51036 16.2521C3.5145 16.2365 3.52128 16.2114 3.53084 16.1773C3.54996 16.1092 3.58019 16.0053 3.62263 15.8703C3.70757 15.6002 3.84116 15.2062 4.0322 14.7249C4.41498 13.7604 5.02456 12.4549 5.92872 11.0945C7.73985 8.3696 10.6858 5.48922 15.3093 4.59253L14.8357 2.65312C9.52819 3.68246 6.19921 6.98913 4.21812 9.96975C3.22618 11.4622 2.56034 12.889 2.14173 13.9438C1.93208 14.472 1.78348 14.9094 1.6864 15.2181C1.63784 15.3726 1.6021 15.4951 1.57801 15.5809C1.56597 15.6238 1.55683 15.6576 1.55045 15.6817C1.54726 15.6937 1.54476 15.7033 1.54293 15.7104C1.54201 15.714 1.54126 15.7169 1.54068 15.7192C1.54039 15.7203 1.54014 15.7213 1.53993 15.7221C1.53983 15.7225 1.5397 15.723 1.53965 15.7232C1.53954 15.7237 1.53943 15.7241 2.52259 15.9969ZM15.3093 4.59253C19.3837 3.80234 23.3967 5.37272 26.6845 7.47776L27.7429 5.83821C24.2519 3.6031 19.6653 1.71646 14.8357 2.65312L15.3093 4.59253Z" fill="black"/>
<path d="M34.3667 20.0149C34.4924 19.4893 34.1526 18.9454 33.6078 18.8C33.063 18.6546 32.5194 18.9628 32.3937 19.4885L34.3667 20.0149ZM1.76349 23.3648L5.85155 34.2086L13.2925 25.7354L1.76349 23.3648ZM33.3802 19.7517C32.3937 19.4885 32.3938 19.4881 32.3939 19.4878C32.3939 19.4878 32.3939 19.4875 32.394 19.4874C32.394 19.4872 32.394 19.4872 32.394 19.4873C32.3939 19.4876 32.3937 19.4884 32.3933 19.4899C32.3926 19.4929 32.3913 19.4983 32.3893 19.5061C32.3853 19.5218 32.3788 19.5469 32.3696 19.5811C32.3512 19.6494 32.3222 19.7536 32.2812 19.8889C32.1992 20.1598 32.07 20.555 31.8842 21.0381C31.512 22.0059 30.9168 23.3169 30.0276 24.6853C28.2464 27.4264 25.3323 30.3328 20.7194 31.2709L21.2138 33.205C26.5103 32.1279 29.803 28.7912 31.7513 25.793C32.7268 24.2917 33.377 22.8589 33.784 21.8005C33.9878 21.2704 34.1316 20.8318 34.2253 20.5221C34.2722 20.3673 34.3066 20.2445 34.3297 20.1584C34.3413 20.1154 34.35 20.0815 34.3562 20.0574C34.3592 20.0454 34.3616 20.0357 34.3634 20.0286C34.3642 20.0251 34.365 20.0222 34.3655 20.0199C34.3658 20.0187 34.366 20.0177 34.3662 20.0169C34.3663 20.0165 34.3664 20.016 34.3665 20.0158C34.3666 20.0153 34.3667 20.0149 33.3802 19.7517ZM20.7194 31.2709C16.6535 32.0978 12.6228 30.5629 9.31159 28.4868L8.26939 30.1346C11.7849 32.3388 16.3932 34.1854 21.2138 33.205L20.7194 31.2709Z" fill="black"/>
</svg>
